<svg xmlns="http://www.w3.org/2000/svg" xmlns:xlink="http://www.w3.org/1999/xlink" viewBox="0 0 596.11 278"><defs><style>.cls-1{fill:none;}.cls-1,.cls-2{stroke:#fff;stroke-miterlimit:10;stroke-width:0.32px;}.cls-3{font-size:8.56px;font-family:AvenirNext-Regular, Avenir Next;}.cls-10,.cls-11,.cls-3{fill:#fff;}.cls-4{letter-spacing:-0.02em;}.cls-5{letter-spacing:-0.1em;}.cls-6{clip-path:url(#clip-path);}.cls-7{clip-path:url(#clip-path-2);}.cls-8{clip-path:url(#clip-path-3);}.cls-9{clip-path:url(#clip-path-4);}.cls-11{font-size:10.8px;font-family:AcuminProWide-UltraBlack, Acumin Pro Wide;font-weight:900;letter-spacing:-0.02em;}.cls-12{letter-spacing:0.01em;}.cls-13{letter-spacing:0em;}</style><clipPath id="clip-path"><path class="cls-1" d="M470.59,251.15h-7.53c-.65,0-1.18-.82-1.18-1.83v-14.7c0-1,.53-1.83,1.18-1.83h7.53c.62,0,1.13.79,1.13,1.76v14.84C471.72,250.36,471.21,251.15,470.59,251.15Z"/></clipPath><clipPath id="clip-path-2"><path class="cls-1" d="M470.59,180.2h-7.53c-.65,0-1.18-.82-1.18-1.84V163.67c0-1,.53-1.84,1.18-1.84h7.53c.62,0,1.13.8,1.13,1.77v14.83C471.72,179.4,471.21,180.2,470.59,180.2Z"/></clipPath><clipPath id="clip-path-3"><path class="cls-1" d="M125.52,251.15h7.53c.65,0,1.18-.82,1.18-1.83v-14.7c0-1-.53-1.83-1.18-1.83h-7.53c-.62,0-1.13.79-1.13,1.76v14.84C124.39,250.36,124.9,251.15,125.52,251.15Z"/></clipPath><clipPath id="clip-path-4"><path class="cls-1" d="M125.52,180.2h7.53c.65,0,1.18-.82,1.18-1.84V163.67c0-1-.53-1.84-1.18-1.84h-7.53c-.62,0-1.13.8-1.13,1.77v14.83C124.39,179.4,124.9,180.2,125.52,180.2Z"/></clipPath></defs><title>2800</title><g id="Layer_2" data-name="Layer 2"><g id="Layer_1-2" data-name="Layer 1"><rect class="cls-2" x="144.95" y="136.07" width="305.86" height="141.77" rx="12.91"/><text class="cls-3" transform="translate(162.28 150.58) rotate(90)">Wi<tspan class="cls-4" x="10.46" y="0">F</tspan><tspan x="15.12" y="0">i</tspan></text><text class="cls-3" transform="translate(428.34 165.95) rotate(-90)"><tspan class="cls-5">L</tspan><tspan x="3.54" y="0">TE</tspan></text><text class="cls-3" transform="translate(162.28 245.02) rotate(90)">Wi<tspan class="cls-4" x="10.46" y="0">F</tspan><tspan x="15.12" y="0">i</tspan></text><text class="cls-3" transform="translate(428.34 260.39) rotate(-90)"><tspan class="cls-5">L</tspan><tspan x="3.54" y="0">TE</tspan></text><path class="cls-1" d="M306.58,277.84V273.1a.79.79,0,0,1,.79-.79h.57a.78.78,0,0,1,.78.79v4.74h-2.14Z"/><path class="cls-1" d="M301.41,277.84v-4.59a.94.94,0,0,1,.94-.94h.26a.94.94,0,0,1,.94.94v4.59h-2.14Z"/><path class="cls-1" d="M296.24,277.84v-4.59a.94.94,0,0,1,.94-.94h.26a.94.94,0,0,1,.94.94v4.59h-2.14Z"/><path class="cls-1" d="M291.07,277.84v-4.59a.94.94,0,0,1,.94-.94h.26a.94.94,0,0,1,.94.94v4.59h-2.14Z"/><path class="cls-1" d="M285.9,277.84v-4.59a.94.94,0,0,1,.94-.94h.26a1,1,0,0,1,.94.94v4.59H285.9Z"/><path class="cls-1" d="M280.73,277.84v-4.59a.94.94,0,0,1,.93-.94h.27a1,1,0,0,1,.94.94v4.59h-2.14Z"/><path class="cls-1" d="M275.55,277.84v-4.59a1,1,0,0,1,.94-.94h.26a.94.94,0,0,1,.94.94v4.59h-2.14Z"/><path class="cls-2" d="M457.5,169.42v3.21a1.79,1.79,0,0,1-1.71,1.78,11.32,11.32,0,0,0,.37-3.3,9.58,9.58,0,0,0-.48-3.47h0A1.78,1.78,0,0,1,457.5,169.42Z"/><path class="cls-2" d="M456.16,171.11a11.32,11.32,0,0,1-.37,3.3.73.73,0,0,1-.34.45c-.4.13-.5-.26-.53-.45h-.08a11.28,11.28,0,0,0,.37-3.3,9.58,9.58,0,0,0-.48-3.47l-.08-.18c.08-.2.23-.45.44-.45s.41.21.59.63A9.58,9.58,0,0,1,456.16,171.11Z"/><path class="cls-2" d="M454.92,174.41a.51.51,0,0,1,0-.09"/><path class="cls-2" d="M454,174.41a.51.51,0,0,1,0-.09"/><path class="cls-2" d="M455.21,171.11a11.28,11.28,0,0,1-.37,3.3.73.73,0,0,1-.34.45c-.4.13-.5-.26-.53-.45h-.08a11.28,11.28,0,0,0,.37-3.3,9.58,9.58,0,0,0-.48-3.47.91.91,0,0,0-.09-.17h0c.09-.2.24-.45.45-.45s.35.15.51.45l.08.18A9.58,9.58,0,0,1,455.21,171.11Z"/><path class="cls-2" d="M453,174.41a.51.51,0,0,1,0-.09"/><path class="cls-2" d="M454.26,171.11a11.28,11.28,0,0,1-.37,3.3.77.77,0,0,1-.34.45c-.4.13-.5-.26-.53-.45h-.08a11.28,11.28,0,0,0,.37-3.3,9.32,9.32,0,0,0-.49-3.47,1,1,0,0,0-.08-.18c.09-.2.24-.45.45-.45s.35.15.5.45h0a.91.91,0,0,1,.09.17A9.58,9.58,0,0,1,454.26,171.11Z"/><path class="cls-2" d="M453.31,171.11a11.28,11.28,0,0,1-.37,3.3c-.1.24-.21.4-.35.45-.39.13-.49-.26-.52-.45h-1.26v-6.77h.92c.06-.2.23-.63.51-.63s.35.15.5.45a1,1,0,0,1,.08.18A9.32,9.32,0,0,1,453.31,171.11Z"/><path class="cls-2" d="M451.75,167.64a8.57,8.57,0,0,1,.67,3.47"/><path class="cls-2" d="M452.42,171.11a10.91,10.91,0,0,1-.38,3.3"/><path class="cls-2" d="M138.11,169.42v3.21a1.79,1.79,0,0,0,1.71,1.78,11.32,11.32,0,0,1-.37-3.3,9.58,9.58,0,0,1,.48-3.47h0A1.79,1.79,0,0,0,138.11,169.42Z"/><path class="cls-2" d="M139.45,171.11a11.32,11.32,0,0,0,.37,3.3.73.73,0,0,0,.34.45c.4.13.5-.26.53-.45h.08a11.28,11.28,0,0,1-.37-3.3,9.58,9.58,0,0,1,.48-3.47c0-.07.06-.12.08-.18s-.23-.45-.44-.45-.41.21-.59.63A9.58,9.58,0,0,0,139.45,171.11Z"/><path class="cls-2" d="M140.7,174.32a.51.51,0,0,1,0,.09"/><path class="cls-2" d="M141.65,174.32a.51.51,0,0,1,0,.09"/><path class="cls-2" d="M140.4,171.11a11.28,11.28,0,0,0,.37,3.3.77.77,0,0,0,.34.45c.4.13.5-.26.53-.45h.09a10.91,10.91,0,0,1-.38-3.3,9.58,9.58,0,0,1,.48-3.47l.09-.17h0c-.09-.2-.24-.45-.45-.45s-.35.15-.51.45c0,.06-.05.11-.08.18A9.58,9.58,0,0,0,140.4,171.11Z"/><path class="cls-2" d="M142.6,174.32a.51.51,0,0,1,0,.09"/><path class="cls-2" d="M141.35,171.11a10.91,10.91,0,0,0,.38,3.3c.09.24.2.4.34.45.39.13.49-.26.52-.45h.09a10.91,10.91,0,0,1-.38-3.3,9.53,9.53,0,0,1,.49-3.47,1,1,0,0,1,.08-.18c-.09-.2-.24-.45-.45-.45s-.35.15-.5.45h0l-.09.17A9.58,9.58,0,0,0,141.35,171.11Z"/><path class="cls-2" d="M142.3,171.11a10.91,10.91,0,0,0,.38,3.3c.09.24.2.4.34.45.39.13.5-.26.52-.45h1.26v-6.77h-.92c-.06-.2-.23-.63-.51-.63s-.35.15-.5.45a1,1,0,0,0-.08.18A9.53,9.53,0,0,0,142.3,171.11Z"/><path class="cls-2" d="M143.86,167.64a8.79,8.79,0,0,0-.66,3.47"/><path class="cls-2" d="M143.2,171.11a11.28,11.28,0,0,0,.37,3.3"/><path class="cls-2" d="M457.5,240.87v3.21a1.78,1.78,0,0,1-1.71,1.78,11.28,11.28,0,0,0,.37-3.3,9.62,9.62,0,0,0-.48-3.47h0A1.78,1.78,0,0,1,457.5,240.87Z"/><path class="cls-2" d="M456.16,242.56a11.28,11.28,0,0,1-.37,3.3c-.09.24-.21.41-.34.45-.4.13-.5-.26-.53-.45h-.08a11.28,11.28,0,0,0,.37-3.3,9.62,9.62,0,0,0-.48-3.47c0-.06-.05-.12-.08-.17.08-.21.23-.46.44-.46s.41.21.59.63A9.62,9.62,0,0,1,456.16,242.56Z"/><path class="cls-2" d="M454.92,245.86a.51.51,0,0,1,0-.09"/><path class="cls-2" d="M454,245.86a.51.51,0,0,1,0-.09"/><path class="cls-2" d="M455.21,242.56a11.28,11.28,0,0,1-.37,3.3c-.09.24-.21.41-.34.45-.4.13-.5-.26-.53-.45h-.08a11.28,11.28,0,0,0,.37-3.3,9.62,9.62,0,0,0-.48-3.47.91.91,0,0,0-.09-.17h0c.09-.21.24-.46.45-.46s.35.16.51.46c0,.05.05.11.08.17A9.62,9.62,0,0,1,455.21,242.56Z"/><path class="cls-2" d="M453,245.86a.51.51,0,0,1,0-.09"/><path class="cls-2" d="M454.26,242.56a11.28,11.28,0,0,1-.37,3.3c-.1.24-.21.41-.34.45-.4.13-.5-.26-.53-.45h-.08a11.28,11.28,0,0,0,.37-3.3,9.35,9.35,0,0,0-.49-3.47.89.89,0,0,0-.08-.17c.09-.21.24-.46.45-.46s.35.16.5.46h0a.91.91,0,0,1,.09.17A9.62,9.62,0,0,1,454.26,242.56Z"/><path class="cls-2" d="M453.31,242.56a11.28,11.28,0,0,1-.37,3.3c-.1.24-.21.41-.35.45-.39.13-.49-.26-.52-.45h-1.26v-6.77h.92c.06-.19.23-.63.51-.63s.35.16.5.46a.89.89,0,0,1,.08.17A9.35,9.35,0,0,1,453.31,242.56Z"/><path class="cls-2" d="M451.75,239.09a8.61,8.61,0,0,1,.67,3.47"/><path class="cls-2" d="M452.42,242.56a10.91,10.91,0,0,1-.38,3.3"/><path class="cls-2" d="M138.11,240.87v3.21a1.78,1.78,0,0,0,1.71,1.78,11.28,11.28,0,0,1-.37-3.3,9.62,9.62,0,0,1,.48-3.47h0A1.79,1.79,0,0,0,138.11,240.87Z"/><path class="cls-2" d="M139.45,242.56a11.28,11.28,0,0,0,.37,3.3c.09.24.21.41.34.45.4.13.5-.26.53-.45h.08a11.28,11.28,0,0,1-.37-3.3,9.62,9.62,0,0,1,.48-3.47l.08-.17c-.08-.21-.23-.46-.44-.46s-.41.21-.59.63A9.62,9.62,0,0,0,139.45,242.56Z"/><path class="cls-2" d="M140.7,245.77a.51.51,0,0,1,0,.09"/><path class="cls-2" d="M141.65,245.77a.51.51,0,0,1,0,.09"/><path class="cls-2" d="M140.4,242.56a11.28,11.28,0,0,0,.37,3.3c.1.24.21.41.34.45.4.13.5-.26.53-.45h.09a10.91,10.91,0,0,1-.38-3.3,9.62,9.62,0,0,1,.48-3.47l.09-.17h0c-.09-.21-.24-.46-.45-.46s-.35.16-.51.46l-.08.17A9.62,9.62,0,0,0,140.4,242.56Z"/><path class="cls-2" d="M142.6,245.77a.51.51,0,0,1,0,.09"/><path class="cls-2" d="M141.35,242.56a10.91,10.91,0,0,0,.38,3.3c.09.24.2.41.34.45.39.13.49-.26.52-.45h.09a10.91,10.91,0,0,1-.38-3.3,9.57,9.57,0,0,1,.49-3.47.89.89,0,0,1,.08-.17c-.09-.21-.24-.46-.45-.46s-.35.16-.5.46h0l-.09.17A9.62,9.62,0,0,0,141.35,242.56Z"/><path class="cls-2" d="M142.3,242.56a10.91,10.91,0,0,0,.38,3.3c.09.24.2.41.34.45.39.13.5-.26.52-.45h1.26v-6.77h-.92c-.06-.19-.23-.63-.51-.63s-.35.16-.5.46a.89.89,0,0,0-.08.17A9.57,9.57,0,0,0,142.3,242.56Z"/><path class="cls-2" d="M143.86,239.09a8.83,8.83,0,0,0-.66,3.47"/><path class="cls-2" d="M143.2,242.56a11.28,11.28,0,0,0,.37,3.3"/><path class="cls-2" d="M593.75,118.52l-60.16,92.34a24.55,24.55,0,0,1-13.86,9.41l.79-1.43,4.39-15.23a1.8,1.8,0,0,0-.52-2.47l-1.5-1a1.79,1.79,0,0,0-2.47.52l-13,9.63-1.37,1.58a24.42,24.42,0,0,1,2.87-17.1l60.16-92.34a13.67,13.67,0,0,1,18.87-4l1.8,1.17A13.68,13.68,0,0,1,593.75,118.52Z"/><path class="cls-2" d="M513.43,231.68a1.79,1.79,0,0,1-2.47.52l-12.7-8.27a1.8,1.8,0,0,1-.52-2.47l8.33-9.56,1.37-1.58,13-9.63a1.79,1.79,0,0,1,2.47-.52l1.5,1a1.8,1.8,0,0,1,.52,2.47l-4.39,15.23-.79,1.43Z"/><path class="cls-2" d="M511.09,235.26l-10.61,16.29a1.78,1.78,0,0,1-2.46.52l-7.89-5.14-.1-6.13,5.7-8.74a1.79,1.79,0,0,0-.52-2.46l-1.8-1.17,2.15-3.29a1.78,1.78,0,0,1,2.46-.52l12.55,8.18A1.77,1.77,0,0,1,511.09,235.26Z"/><path class="cls-2" d="M487.06,251.24H475.19a1.85,1.85,0,0,1-1.86-1.85V234.55a1.85,1.85,0,0,1,1.86-1.85h11.87a1.79,1.79,0,0,1,1.79,1.78v15A1.79,1.79,0,0,1,487.06,251.24Z"/><path class="cls-2" d="M471.5,250.42h.08a1.51,1.51,0,0,0,1.36-1.62V235.14a1.51,1.51,0,0,0-1.36-1.62h-.08a1.1,1.1,0,0,0-.91-.73h-7.53a1.17,1.17,0,0,0-1,.83,2.05,2.05,0,0,0-1.27,1.59v13.52a2.05,2.05,0,0,0,1.27,1.59,1.17,1.17,0,0,0,1,.83h7.53A1.1,1.1,0,0,0,471.5,250.42Z"/><g class="cls-6"><line class="cls-1" x1="471.72" y1="251.15" x2="461.97" y2="251.15"/><line class="cls-1" x1="471.72" y1="250.98" x2="461.97" y2="250.98"/><line class="cls-1" x1="471.72" y1="250.63" x2="461.97" y2="250.63"/><line class="cls-1" x1="471.72" y1="250.11" x2="461.97" y2="250.11"/><line class="cls-1" x1="471.72" y1="249.59" x2="461.97" y2="249.59"/><line class="cls-1" x1="471.72" y1="249.06" x2="461.97" y2="249.06"/><line class="cls-1" x1="471.72" y1="248.54" x2="461.97" y2="248.54"/><line class="cls-1" x1="471.72" y1="247.84" x2="461.97" y2="247.84"/><line class="cls-1" x1="471.72" y1="246.97" x2="461.97" y2="246.97"/><line class="cls-1" x1="471.72" y1="245.75" x2="461.97" y2="245.75"/><line class="cls-1" x1="471.72" y1="244.19" x2="461.97" y2="244.19"/><line class="cls-1" x1="471.72" y1="242.79" x2="461.97" y2="242.79"/><line class="cls-1" x1="471.72" y1="232.87" x2="461.97" y2="232.87"/><line class="cls-1" x1="471.72" y1="233.04" x2="461.97" y2="233.04"/><line class="cls-1" x1="471.72" y1="233.39" x2="461.97" y2="233.39"/><line class="cls-1" x1="471.72" y1="233.91" x2="461.97" y2="233.91"/><line class="cls-1" x1="471.72" y1="234.43" x2="461.97" y2="234.43"/><line class="cls-1" x1="471.72" y1="234.96" x2="461.97" y2="234.96"/><line class="cls-1" x1="471.72" y1="235.48" x2="461.97" y2="235.48"/><line class="cls-1" x1="471.72" y1="236.18" x2="461.97" y2="236.18"/><line class="cls-1" x1="471.72" y1="237.05" x2="461.97" y2="237.05"/><line class="cls-1" x1="471.72" y1="238.27" x2="461.97" y2="238.27"/><line class="cls-1" x1="471.72" y1="239.83" x2="461.97" y2="239.83"/><line class="cls-1" x1="471.72" y1="241.23" x2="461.97" y2="241.23"/></g><path class="cls-1" d="M470.59,251.15h-7.53c-.65,0-1.18-.82-1.18-1.83v-14.7c0-1,.53-1.83,1.18-1.83h7.53c.62,0,1.13.79,1.13,1.76v14.84C471.72,250.36,471.21,251.15,470.59,251.15Z"/><path class="cls-2" d="M510.2,13.8V124a24.57,24.57,0,0,1-6.48,15.45l-.12-1.63L499,122.68a1.79,1.79,0,0,0-1.79-1.79H495.4a1.79,1.79,0,0,0-1.78,1.79L488,137.83l-.29,2.08a24.44,24.44,0,0,1-6.93-15.9V13.8A13.68,13.68,0,0,1,494.42.16h2.14A13.68,13.68,0,0,1,510.2,13.8Z"/><path class="cls-2" d="M504.67,152.46a1.78,1.78,0,0,1-1.78,1.78H487.73a1.78,1.78,0,0,1-1.78-1.78l1.76-12.55.29-2.08,5.62-15.15a1.79,1.79,0,0,1,1.78-1.79h1.78a1.79,1.79,0,0,1,1.79,1.79l4.63,15.15.12,1.63Z"/><path class="cls-2" d="M504.67,156.74v19.43a1.79,1.79,0,0,1-1.78,1.79h-9.42l-3.42-5.08V162.44a1.78,1.78,0,0,0-1.78-1.78h-2.14v-3.92a1.79,1.79,0,0,1,1.78-1.79h15A1.79,1.79,0,0,1,504.67,156.74Z"/><path class="cls-2" d="M487.06,180.29H475.19a1.86,1.86,0,0,1-1.86-1.86V163.6a1.86,1.86,0,0,1,1.86-1.86h11.87a1.79,1.79,0,0,1,1.79,1.79v15A1.79,1.79,0,0,1,487.06,180.29Z"/><path class="cls-2" d="M471.5,179.47h.08a1.51,1.51,0,0,0,1.36-1.63V164.19a1.51,1.51,0,0,0-1.36-1.63h-.08a1.1,1.1,0,0,0-.91-.73h-7.53a1.17,1.17,0,0,0-1,.84,2,2,0,0,0-1.27,1.58v13.53a2,2,0,0,0,1.27,1.58,1.17,1.17,0,0,0,1,.84h7.53A1.1,1.1,0,0,0,471.5,179.47Z"/><g class="cls-7"><line class="cls-1" x1="471.72" y1="180.2" x2="461.97" y2="180.2"/><line class="cls-1" x1="471.72" y1="180.02" x2="461.97" y2="180.02"/><line class="cls-1" x1="471.72" y1="179.68" x2="461.97" y2="179.68"/><line class="cls-1" x1="471.72" y1="179.15" x2="461.97" y2="179.15"/><line class="cls-1" x1="471.72" y1="178.63" x2="461.97" y2="178.63"/><line class="cls-1" x1="471.72" y1="178.11" x2="461.97" y2="178.11"/><line class="cls-1" x1="471.72" y1="177.59" x2="461.97" y2="177.59"/><line class="cls-1" x1="471.72" y1="176.89" x2="461.97" y2="176.89"/><line class="cls-1" x1="471.72" y1="176.02" x2="461.97" y2="176.02"/><line class="cls-1" x1="471.72" y1="174.8" x2="461.97" y2="174.8"/><line class="cls-1" x1="471.72" y1="173.23" x2="461.97" y2="173.23"/><line class="cls-1" x1="471.72" y1="171.84" x2="461.97" y2="171.84"/><line class="cls-1" x1="471.72" y1="161.91" x2="461.97" y2="161.91"/><line class="cls-1" x1="471.72" y1="162.09" x2="461.97" y2="162.09"/><line class="cls-1" x1="471.72" y1="162.43" x2="461.97" y2="162.43"/><line class="cls-1" x1="471.72" y1="162.96" x2="461.97" y2="162.96"/><line class="cls-1" x1="471.72" y1="163.48" x2="461.97" y2="163.48"/><line class="cls-1" x1="471.72" y1="164" x2="461.97" y2="164"/><line class="cls-1" x1="471.72" y1="164.52" x2="461.97" y2="164.52"/><line class="cls-1" x1="471.72" y1="165.22" x2="461.97" y2="165.22"/><line class="cls-1" x1="471.72" y1="166.09" x2="461.97" y2="166.09"/><line class="cls-1" x1="471.72" y1="167.31" x2="461.97" y2="167.31"/><line class="cls-1" x1="471.72" y1="168.88" x2="461.97" y2="168.88"/><line class="cls-1" x1="471.72" y1="170.27" x2="461.97" y2="170.27"/></g><path class="cls-1" d="M470.59,180.2h-7.53c-.65,0-1.18-.82-1.18-1.84V163.67c0-1,.53-1.84,1.18-1.84h7.53c.62,0,1.13.8,1.13,1.77v14.83C471.72,179.4,471.21,180.2,470.59,180.2Z"/><path class="cls-2" d="M2.36,118.52l60.16,92.34a24.55,24.55,0,0,0,13.86,9.41l-.79-1.43L71.2,203.61a1.79,1.79,0,0,1,.53-2.47l1.49-1a1.79,1.79,0,0,1,2.47.52l13,9.63L90,211.9a24.47,24.47,0,0,0-2.86-17.1L27,102.46a13.68,13.68,0,0,0-18.88-4l-1.8,1.17A13.68,13.68,0,0,0,2.36,118.52Z"/><path class="cls-2" d="M82.68,231.68a1.79,1.79,0,0,0,2.47.52l12.7-8.27a1.8,1.8,0,0,0,.52-2.47L90,211.9l-1.37-1.58-13-9.63a1.79,1.79,0,0,0-2.47-.52l-1.49,1a1.79,1.79,0,0,0-.53,2.47l4.39,15.23.79,1.43Z"/><path class="cls-2" d="M85,235.26l10.61,16.29a1.79,1.79,0,0,0,2.47.52l7.89-5.14.09-6.13-5.7-8.74a1.79,1.79,0,0,1,.52-2.46l1.8-1.17-2.14-3.29a1.79,1.79,0,0,0-2.47-.52L85.54,232.8A1.78,1.78,0,0,0,85,235.26Z"/><path class="cls-2" d="M109.05,251.24h11.88a1.85,1.85,0,0,0,1.85-1.85V234.55a1.85,1.85,0,0,0-1.85-1.85H109.05a1.78,1.78,0,0,0-1.78,1.78v15A1.78,1.78,0,0,0,109.05,251.24Z"/><path class="cls-2" d="M124.61,250.42h-.08a1.51,1.51,0,0,1-1.36-1.62V235.14a1.51,1.51,0,0,1,1.36-1.62h.08a1.1,1.1,0,0,1,.91-.73h7.53a1.16,1.16,0,0,1,1,.83,2.06,2.06,0,0,1,1.28,1.59v13.52a2.06,2.06,0,0,1-1.28,1.59,1.16,1.16,0,0,1-1,.83h-7.53A1.1,1.1,0,0,1,124.61,250.42Z"/><g class="cls-8"><line class="cls-1" x1="124.39" y1="251.15" x2="134.15" y2="251.15"/><line class="cls-1" x1="124.39" y1="250.98" x2="134.15" y2="250.98"/><line class="cls-1" x1="124.39" y1="250.63" x2="134.15" y2="250.63"/><line class="cls-1" x1="124.39" y1="250.11" x2="134.15" y2="250.11"/><line class="cls-1" x1="124.39" y1="249.59" x2="134.15" y2="249.59"/><line class="cls-1" x1="124.39" y1="249.06" x2="134.15" y2="249.06"/><line class="cls-1" x1="124.39" y1="248.54" x2="134.15" y2="248.54"/><line class="cls-1" x1="124.39" y1="247.84" x2="134.15" y2="247.84"/><line class="cls-1" x1="124.39" y1="246.97" x2="134.15" y2="246.97"/><line class="cls-1" x1="124.39" y1="245.75" x2="134.15" y2="245.75"/><line class="cls-1" x1="124.39" y1="244.19" x2="134.15" y2="244.19"/><line class="cls-1" x1="124.39" y1="242.79" x2="134.15" y2="242.79"/><line class="cls-1" x1="124.39" y1="232.87" x2="134.15" y2="232.87"/><line class="cls-1" x1="124.39" y1="233.04" x2="134.15" y2="233.04"/><line class="cls-1" x1="124.39" y1="233.39" x2="134.15" y2="233.39"/><line class="cls-1" x1="124.39" y1="233.91" x2="134.15" y2="233.91"/><line class="cls-1" x1="124.39" y1="234.43" x2="134.15" y2="234.43"/><line class="cls-1" x1="124.39" y1="234.96" x2="134.15" y2="234.96"/><line class="cls-1" x1="124.39" y1="235.48" x2="134.15" y2="235.48"/><line class="cls-1" x1="124.39" y1="236.18" x2="134.15" y2="236.18"/><line class="cls-1" x1="124.39" y1="237.05" x2="134.15" y2="237.05"/><line class="cls-1" x1="124.39" y1="238.27" x2="134.15" y2="238.27"/><line class="cls-1" x1="124.39" y1="239.83" x2="134.15" y2="239.83"/><line class="cls-1" x1="124.39" y1="241.23" x2="134.15" y2="241.23"/></g><path class="cls-1" d="M125.52,251.15h7.53c.65,0,1.18-.82,1.18-1.83v-14.7c0-1-.53-1.83-1.18-1.83h-7.53c-.62,0-1.13.79-1.13,1.76v14.84C124.39,250.36,124.9,251.15,125.52,251.15Z"/><path class="cls-2" d="M85.91,13.8V124a24.57,24.57,0,0,0,6.48,15.45l.12-1.63,4.63-15.15a1.79,1.79,0,0,1,1.79-1.79h1.78a1.79,1.79,0,0,1,1.78,1.79l5.62,15.15.29,2.08a24.44,24.44,0,0,0,6.93-15.9V13.8A13.68,13.68,0,0,0,101.69.16H99.55A13.68,13.68,0,0,0,85.91,13.8Z"/><path class="cls-2" d="M91.44,152.46a1.78,1.78,0,0,0,1.78,1.78h15.16a1.78,1.78,0,0,0,1.78-1.78l-1.76-12.55-.29-2.08-5.62-15.15a1.79,1.79,0,0,0-1.78-1.79H98.93a1.79,1.79,0,0,0-1.79,1.79l-4.63,15.15-.12,1.63Z"/><path class="cls-2" d="M91.44,156.74v19.43A1.79,1.79,0,0,0,93.22,178h9.42l3.42-5.08V162.44a1.78,1.78,0,0,1,1.78-1.78H110v-3.92A1.79,1.79,0,0,0,108.2,155h-15A1.79,1.79,0,0,0,91.44,156.74Z"/><path class="cls-2" d="M109.05,180.29h11.88a1.85,1.85,0,0,0,1.85-1.86V163.6a1.85,1.85,0,0,0-1.85-1.86H109.05a1.79,1.79,0,0,0-1.78,1.79v15A1.79,1.79,0,0,0,109.05,180.29Z"/><path class="cls-2" d="M124.61,179.47h-.08a1.51,1.51,0,0,1-1.36-1.63V164.19a1.51,1.51,0,0,1,1.36-1.63h.08a1.1,1.1,0,0,1,.91-.73h7.53a1.16,1.16,0,0,1,1,.84,2,2,0,0,1,1.28,1.58v13.53a2,2,0,0,1-1.28,1.58,1.16,1.16,0,0,1-1,.84h-7.53A1.1,1.1,0,0,1,124.61,179.47Z"/><g class="cls-9"><line class="cls-1" x1="124.39" y1="180.2" x2="134.15" y2="180.2"/><line class="cls-1" x1="124.39" y1="180.02" x2="134.15" y2="180.02"/><line class="cls-1" x1="124.39" y1="179.68" x2="134.15" y2="179.68"/><line class="cls-1" x1="124.39" y1="179.15" x2="134.15" y2="179.15"/><line class="cls-1" x1="124.39" y1="178.63" x2="134.15" y2="178.63"/><line class="cls-1" x1="124.39" y1="178.11" x2="134.15" y2="178.11"/><line class="cls-1" x1="124.39" y1="177.59" x2="134.15" y2="177.59"/><line class="cls-1" x1="124.39" y1="176.89" x2="134.15" y2="176.89"/><line class="cls-1" x1="124.39" y1="176.02" x2="134.15" y2="176.02"/><line class="cls-1" x1="124.39" y1="174.8" x2="134.15" y2="174.8"/><line class="cls-1" x1="124.39" y1="173.23" x2="134.15" y2="173.23"/><line class="cls-1" x1="124.39" y1="171.84" x2="134.15" y2="171.84"/><line class="cls-1" x1="124.39" y1="161.91" x2="134.15" y2="161.91"/><line class="cls-1" x1="124.39" y1="162.09" x2="134.15" y2="162.09"/><line class="cls-1" x1="124.39" y1="162.43" x2="134.15" y2="162.43"/><line class="cls-1" x1="124.39" y1="162.96" x2="134.15" y2="162.96"/><line class="cls-1" x1="124.39" y1="163.48" x2="134.15" y2="163.48"/><line class="cls-1" x1="124.39" y1="164" x2="134.15" y2="164"/><line class="cls-1" x1="124.39" y1="164.52" x2="134.15" y2="164.52"/><line class="cls-1" x1="124.39" y1="165.22" x2="134.15" y2="165.22"/><line class="cls-1" x1="124.39" y1="166.09" x2="134.15" y2="166.09"/><line class="cls-1" x1="124.39" y1="167.31" x2="134.15" y2="167.31"/><line class="cls-1" x1="124.39" y1="168.88" x2="134.15" y2="168.88"/><line class="cls-1" x1="124.39" y1="170.27" x2="134.15" y2="170.27"/></g><path class="cls-1" d="M125.52,180.2h7.53c.65,0,1.18-.82,1.18-1.84V163.67c0-1-.53-1.84-1.18-1.84h-7.53c-.62,0-1.13.8-1.13,1.77v14.83C124.39,179.4,124.9,180.2,125.52,180.2Z"/><g id="NS_Logo_-_Inverse" data-name="NS Logo - Inverse"><rect class="cls-10" x="283.64" y="230.76" width="1.24" height="1.24"/><rect class="cls-10" x="283.64" y="233.24" width="1.95" height="1.95"/><rect class="cls-10" x="282.57" y="232" width="1.24" height="1.24"/><path class="cls-10" d="M269.48,234.65h2.22l3.95,6.37h0v-6.37h1.95V244h-2.13l-4-6.37h0v6.55h-1.95Z"/><path class="cls-10" d="M279.84,241.2c.05,1.24.66,1.81,1.75,1.81a1.62,1.62,0,0,0,1.55-.92h1.73a3.23,3.23,0,0,1-3.35,2.4,3.49,3.49,0,0,1-3.65-3.76,3.58,3.58,0,0,1,3.65-3.77c2.43,0,3.61,2,3.47,4.24ZM283,240c-.17-1-.59-1.47-1.51-1.47a1.49,1.49,0,0,0-1.58,1.47Z"/><path class="cls-10" d="M287.53,237.31h1.41v1.24h-1.41v3.31a.81.81,0,0,0,.81.81,4,4,0,0,0,.6,0v1.5a7.26,7.26,0,0,1-1.07.06c-1.13,0-2.11-.26-2.11-1.59v-4h-1.24v-1.24h1.06v-2.12h1.95Z"/><path class="cls-10" d="M291.25,241.91c0,.83.71,1.16,1.46,1.16.55,0,1.25-.21,1.25-.88s-.79-.78-2.16-1.07c-1.1-.24-2.2-.63-2.2-1.85,0-1.77,1.53-2.23,3-2.23s2.91.51,3.06,2.21h-1.81c-.06-.73-.62-.93-1.3-.93-.43,0-1.06.08-1.06.64s1.07.78,2.16,1,2.19.66,2.19,1.95c0,1.82-1.58,2.41-3.16,2.41s-3.18-.61-3.26-2.44Z"/><path class="cls-10" d="M305,237.13a2.25,2.25,0,0,0-2.08,1.14v-1.14H301v3.63c0,1.41-.44,2-1.46,2-.87,0-1.2-.56-1.2-1.7v-3.91h-1.95v4.46c0,1.57.5,2.61,2.49,2.61a2.48,2.48,0,0,0,2.08-1h0V244h1.94v-3.12c0-1.22.47-2.22,1.82-2.22a3.26,3.26,0,0,1,.66.07v-1.63Z"/><path class="cls-10" d="M307.88,236.07h-1.95v-1.59h1.95Zm-1.95,1.06h1.95V244h-1.95Z"/><path class="cls-10" d="M311.87,237a3.65,3.65,0,1,1-3.57,3.65A3.4,3.4,0,0,1,311.87,237Zm0,5.86c1.3,0,1.69-1.11,1.69-2.21s-.39-2.22-1.69-2.22-1.67,1.11-1.67,2.22S310.59,242.88,311.87,242.88Z"/><path class="cls-10" d="M315.84,237.13h1.94v1.06h0A2.43,2.43,0,0,1,319.9,237c2,0,2.48,1.15,2.48,2.88v4.3l-1.94-.18v-3.91c0-1.13-.33-1.7-1.2-1.7s-1.46.58-1.46,2V244h-1.94Z"/><path class="cls-10" d="M322.74,242.62v-.36h1.59v.36h-.71v1.59h-.35v-1.59Z"/><path class="cls-10" d="M325.12,242.09l.46,1.41h0l.44-1.41h.61v2.12h-.35v-1.42h-.11l-.48,1.42h-.33l-.47-1.42h0v1.42h-.35v-2.12Z"/></g><g id="CXD_1C_Reverse"><text class="cls-11" transform="translate(283.76 254.07)">C<tspan class="cls-12" x="9.5" y="0">X</tspan><tspan class="cls-13" x="18.58" y="0">D</tspan></text></g></g></g></svg>