<svg xmlns="http://www.w3.org/2000/svg" xmlns:xlink="http://www.w3.org/1999/xlink" viewBox="0 0 318.51 380.74"><defs><style>.cls-1{fill:none;}.cls-1,.cls-2,.cls-3,.cls-5{stroke:#fff;stroke-miterlimit:10;}.cls-1,.cls-3,.cls-5{stroke-width:0.32px;}.cls-2{stroke-width:0.28px;}.cls-4,.cls-5,.cls-6{fill:#fff;}.cls-6{font-size:4.72px;font-family:AvenirNext-Regular, Avenir Next;}.cls-7{clip-path:url(#clip-path);}.cls-8{clip-path:url(#clip-path-2);}.cls-9{clip-path:url(#clip-path-3);}.cls-10{clip-path:url(#clip-path-4);}.cls-11{clip-path:url(#clip-path-5);}.cls-12{clip-path:url(#clip-path-6);}</style><clipPath id="clip-path"><path class="cls-1" d="M39.78,275.85H47.3c.65,0,1.18-.83,1.18-1.84V259.32c0-1-.53-1.84-1.18-1.84H39.78c-.63,0-1.13.79-1.13,1.76v14.84C38.65,275.05,39.15,275.85,39.78,275.85Z"/></clipPath><clipPath id="clip-path-2"><path class="cls-1" d="M278.73,275.85H271.2c-.65,0-1.17-.83-1.17-1.84V259.32c0-1,.52-1.84,1.17-1.84h7.53c.62,0,1.13.79,1.13,1.76v14.84C279.86,275.05,279.35,275.85,278.73,275.85Z"/></clipPath><clipPath id="clip-path-3"><path class="cls-1" d="M165.47,341v-7.53c0-.65.83-1.17,1.84-1.17H182c1,0,1.84.52,1.84,1.17V341c0,.62-.79,1.13-1.77,1.13H167.24C166.27,342.09,165.47,341.58,165.47,341Z"/></clipPath><clipPath id="clip-path-4"><path class="cls-1" d="M148.15,341v-7.53c0-.65-.82-1.17-1.84-1.17H131.62c-1,0-1.84.52-1.84,1.17V341c0,.62.8,1.13,1.77,1.13h14.84C147.36,342.09,148.15,341.58,148.15,341Z"/></clipPath><clipPath id="clip-path-5"><path class="cls-1" d="M142.62,196.75v7.53c0,.65-.82,1.18-1.83,1.18h-14.7c-1,0-1.84-.53-1.84-1.18v-7.53c0-.62.8-1.13,1.77-1.13h14.84C141.83,195.62,142.62,196.13,142.62,196.75Z"/></clipPath><clipPath id="clip-path-6"><path class="cls-1" d="M189.19,196.75v7.53c0,.65-.82,1.18-1.84,1.18H172.66c-1,0-1.84-.53-1.84-1.18v-7.53c0-.62.8-1.13,1.77-1.13h14.83C188.4,195.62,189.19,196.13,189.19,196.75Z"/></clipPath></defs><title>Asset 31</title><g id="Layer_2" data-name="Layer 2"><g id="_2800" data-name="2800"><rect class="cls-2" x="49.33" y="206.88" width="219.31" height="124.44" rx="62.22"/><path class="cls-3" d="M207.24,200a4.63,4.63,0,0,0-4.62-4.62h-2.88a4.63,4.63,0,0,0-4.62,4.62v6.93h12.12Zm-8.12,3.33v-3.12a2.25,2.25,0,0,1,2.24-2.24h0a2.25,2.25,0,0,1,2.25,2.24v3.12a2.25,2.25,0,0,1-2.25,2.24h0A2.25,2.25,0,0,1,199.12,203.33Z"/><path class="cls-3" d="M118.38,199.82a4.63,4.63,0,0,0-4.62-4.62h-2.88a4.63,4.63,0,0,0-4.62,4.62v6.94h12.12Zm-8.12,3.33V200a2.25,2.25,0,0,1,2.24-2.24h0a2.25,2.25,0,0,1,2.25,2.24v3.12a2.25,2.25,0,0,1-2.25,2.24h0A2.25,2.25,0,0,1,110.26,203.15Z"/><path class="cls-1" d="M77.14,252.7a2.15,2.15,0,1,1-1.06,0"/><line class="cls-1" x1="76.52" y1="251.99" x2="76.52" y2="254.84"/><path class="cls-1" d="M78.64,247.23a3.16,3.16,0,0,1,0,4.21"/><path class="cls-1" d="M77.83,247.82a2.13,2.13,0,0,1,.65,1.53,2.15,2.15,0,0,1-.62,1.5"/><path class="cls-1" d="M77,248.42a1.14,1.14,0,0,1,0,1.83"/><path class="cls-1" d="M74.29,247.23a3.13,3.13,0,0,0,0,4.21"/><path class="cls-1" d="M75.09,247.82a2.14,2.14,0,0,0,0,3"/><path class="cls-1" d="M75.9,248.42a1.14,1.14,0,0,0,0,1.83"/><circle class="cls-4" cx="76.46" cy="249.31" r="0.62"/><rect class="cls-5" x="89.72" y="271.07" width="1.6" height="1.25"/><rect class="cls-5" x="91.72" y="270.26" width="1.6" height="2.05"/><rect class="cls-5" x="93.73" y="269.19" width="1.6" height="3.12"/><rect class="cls-1" x="95.74" y="268.12" width="1.6" height="4.19"/><rect class="cls-1" x="97.74" y="267.5" width="1.6" height="4.81"/><rect class="cls-5" x="89.72" y="276.19" width="1.6" height="1.25"/><rect class="cls-5" x="91.72" y="275.39" width="1.6" height="2.05"/><rect class="cls-1" x="93.73" y="274.32" width="1.6" height="3.12"/><rect class="cls-1" x="95.74" y="273.25" width="1.6" height="4.19"/><rect class="cls-1" x="97.74" y="272.63" width="1.6" height="4.81"/><rect class="cls-5" x="89.72" y="281.32" width="1.6" height="1.25"/><rect class="cls-1" x="91.72" y="280.52" width="1.6" height="2.05"/><rect class="cls-1" x="93.73" y="279.45" width="1.6" height="3.12"/><rect class="cls-1" x="95.74" y="278.38" width="1.6" height="4.19"/><rect class="cls-1" x="97.74" y="277.75" width="1.6" height="4.81"/><rect class="cls-5" x="89.72" y="265.94" width="1.6" height="1.25"/><rect class="cls-5" x="91.72" y="265.14" width="1.6" height="2.05"/><rect class="cls-5" x="93.73" y="264.07" width="1.6" height="3.12"/><rect class="cls-5" x="95.74" y="263" width="1.6" height="4.19"/><rect class="cls-1" x="97.74" y="262.37" width="1.6" height="4.81"/><rect class="cls-5" x="89.72" y="260.81" width="1.6" height="1.25"/><rect class="cls-5" x="91.72" y="260.01" width="1.6" height="2.05"/><rect class="cls-5" x="93.73" y="258.94" width="1.6" height="3.12"/><rect class="cls-5" x="95.74" y="257.87" width="1.6" height="4.19"/><rect class="cls-5" x="97.74" y="257.25" width="1.6" height="4.81"/><rect class="cls-1" x="83.83" y="247.79" width="5.53" height="2.14" rx="0.94"/><rect class="cls-1" x="83.83" y="252.97" width="5.53" height="2.14" rx="0.94"/><rect class="cls-1" x="83.83" y="258.14" width="5.53" height="2.14" rx="0.94"/><rect class="cls-1" x="83.83" y="263.31" width="5.53" height="2.14" rx="0.94"/><rect class="cls-1" x="83.83" y="268.48" width="5.53" height="2.14" rx="0.94"/><rect class="cls-1" x="83.83" y="273.65" width="5.53" height="2.14" rx="0.94"/><rect class="cls-1" x="83.83" y="278.82" width="5.53" height="2.14" rx="0.94"/><path class="cls-1" d="M85.29,282.93h-2a1.8,1.8,0,0,1-1.79-1.79V259.21a1.8,1.8,0,0,1,1.79-1.79h1.51"/><text class="cls-6" transform="translate(73.22 271.94)">4G</text><g id="NS_Logo_-_Inverse" data-name="NS Logo - Inverse"><rect class="cls-4" x="150.26" y="253.31" width="2.45" height="2.45"/><rect class="cls-4" x="150.26" y="258.21" width="3.85" height="3.85"/><rect class="cls-4" x="148.16" y="255.76" width="2.45" height="2.45"/><path class="cls-4" d="M122.27,261h4.39l7.81,12.59h.05V261h3.85v18.54h-4.22l-8-12.59h-.06V279.9h-3.85Z"/><path class="cls-4" d="M142.75,274c.11,2.46,1.31,3.58,3.47,3.58a3.19,3.19,0,0,0,3.06-1.83h3.41a6.35,6.35,0,0,1-6.61,4.76c-4.45,0-7.21-3.06-7.21-7.43s2.92-7.46,7.21-7.46c4.81,0,7.13,4,6.86,8.38Zm6.22-2.44c-.35-1.91-1.17-2.92-3-2.92a3,3,0,0,0-3.13,2.92Z"/><path class="cls-4" d="M158,266.26h2.8v2.45H158v6.55a1.59,1.59,0,0,0,1.6,1.59,6.08,6.08,0,0,0,1.2-.1v3a14.34,14.34,0,0,1-2.13.13c-2.23,0-4.17-.52-4.17-3.15v-8H152v-2.45h2.1v-4.2H158Z"/><path class="cls-4" d="M165.32,275.35c0,1.65,1.41,2.31,2.89,2.31,1.09,0,2.47-.43,2.47-1.75,0-1.14-1.57-1.54-4.27-2.12-2.17-.48-4.35-1.25-4.35-3.66,0-3.5,3-4.4,6-4.4s5.75,1,6,4.38h-3.58c-.11-1.46-1.22-1.86-2.57-1.86-.85,0-2.09.16-2.09,1.27,0,1.35,2.12,1.54,4.26,2s4.35,1.3,4.35,3.85c0,3.6-3.13,4.77-6.25,4.77s-6.28-1.2-6.44-4.83Z"/><path class="cls-4" d="M192.5,265.91a4.46,4.46,0,0,0-4.11,2.25v-2.25h-3.84v7.17c0,2.78-.87,3.92-2.88,3.92-1.72,0-2.37-1.11-2.37-3.36v-7.73h-3.85v8.81c0,3.11,1,5.17,4.91,5.17a4.9,4.9,0,0,0,4.11-2.09h.08v1.75h3.84v-6.17c0-2.41.93-4.39,3.59-4.39a6.38,6.38,0,0,1,1.31.13v-3.21Z"/><path class="cls-4" d="M198.19,263.81h-3.85v-3.15h3.85Zm-3.85,2.1h3.85v13.64h-3.85Z"/><path class="cls-4" d="M206.09,265.68c4.32,0,7.09,2.86,7.09,7.23s-2.77,7.2-7.09,7.2-7.06-2.86-7.06-7.2S201.8,265.68,206.09,265.68Zm0,11.59c2.57,0,3.34-2.19,3.34-4.36s-.77-4.4-3.34-4.4-3.31,2.2-3.31,4.4S203.55,277.27,206.09,277.27Z"/><path class="cls-4" d="M213.93,265.91h3.85V268h.08a4.76,4.76,0,0,1,4.11-2.3c3.92,0,4.91,2.27,4.91,5.69v8.5l-3.85-.35v-7.73c0-2.25-.65-3.36-2.38-3.36-2,0-2.87,1.14-2.87,3.92v7.17h-3.85Z"/><path class="cls-4" d="M227.58,276.75v-.7h3.15v.7h-1.4v3.15h-.7v-3.15Z"/><path class="cls-4" d="M232.28,275.7l.91,2.8h0l.87-2.8h1.2v4.2h-.7v-2.8h-.21l-.94,2.8h-.66l-.94-2.8h0v2.8h-.7v-4.2Z"/></g><path class="cls-3" d="M.16,109.45V219.66a24.59,24.59,0,0,0,6.48,15.45l.12-1.63,4.64-15.16a1.78,1.78,0,0,1,1.78-1.78H15a1.79,1.79,0,0,1,1.79,1.78l5.61,15.16.29,2.07a24.41,24.41,0,0,0,6.94-15.89V109.45A13.68,13.68,0,0,0,15.94,95.81H13.8A13.68,13.68,0,0,0,.16,109.45Z"/><path class="cls-3" d="M5.69,248.1a1.79,1.79,0,0,0,1.78,1.79H22.63a1.79,1.79,0,0,0,1.78-1.79l-1.76-12.55-.29-2.07-5.61-15.16A1.79,1.79,0,0,0,15,216.54H13.18a1.78,1.78,0,0,0-1.78,1.78L6.76,233.48l-.12,1.63Z"/><path class="cls-3" d="M5.69,252.38v19.44a1.79,1.79,0,0,0,1.78,1.79h9.42l3.42-5.09V258.09a1.79,1.79,0,0,1,1.79-1.78h2.14v-3.93a1.79,1.79,0,0,0-1.79-1.78h-15A1.78,1.78,0,0,0,5.69,252.38Z"/><path class="cls-3" d="M23.3,275.94H35.18A1.85,1.85,0,0,0,37,274.08V259.24a1.85,1.85,0,0,0-1.85-1.85H23.3a1.78,1.78,0,0,0-1.78,1.78v15A1.79,1.79,0,0,0,23.3,275.94Z"/><path class="cls-3" d="M38.86,275.12h-.08a1.52,1.52,0,0,1-1.35-1.63V259.84a1.51,1.51,0,0,1,1.35-1.63h.08a1.1,1.1,0,0,1,.92-.73H47.3a1.16,1.16,0,0,1,1,.84,2,2,0,0,1,1.28,1.58v13.52A2,2,0,0,1,48.29,275a1.18,1.18,0,0,1-1,.84H39.78A1.1,1.1,0,0,1,38.86,275.12Z"/><g class="cls-7"><line class="cls-1" x1="38.65" y1="275.85" x2="48.4" y2="275.85"/><line class="cls-1" x1="38.65" y1="275.67" x2="48.4" y2="275.67"/><line class="cls-1" x1="38.65" y1="275.32" x2="48.4" y2="275.32"/><line class="cls-1" x1="38.65" y1="274.8" x2="48.4" y2="274.8"/><line class="cls-1" x1="38.65" y1="274.28" x2="48.4" y2="274.28"/><line class="cls-1" x1="38.65" y1="273.76" x2="48.4" y2="273.76"/><line class="cls-1" x1="38.65" y1="273.23" x2="48.4" y2="273.23"/><line class="cls-1" x1="38.65" y1="272.54" x2="48.4" y2="272.54"/><line class="cls-1" x1="38.65" y1="271.67" x2="48.4" y2="271.67"/><line class="cls-1" x1="38.65" y1="270.45" x2="48.4" y2="270.45"/><line class="cls-1" x1="38.65" y1="268.88" x2="48.4" y2="268.88"/><line class="cls-1" x1="38.65" y1="267.49" x2="48.4" y2="267.49"/><line class="cls-1" x1="38.65" y1="257.56" x2="48.4" y2="257.56"/><line class="cls-1" x1="38.65" y1="257.73" x2="48.4" y2="257.73"/><line class="cls-1" x1="38.65" y1="258.08" x2="48.4" y2="258.08"/><line class="cls-1" x1="38.65" y1="258.6" x2="48.4" y2="258.6"/><line class="cls-1" x1="38.65" y1="259.13" x2="48.4" y2="259.13"/><line class="cls-1" x1="38.65" y1="259.65" x2="48.4" y2="259.65"/><line class="cls-1" x1="38.65" y1="260.17" x2="48.4" y2="260.17"/><line class="cls-1" x1="38.65" y1="260.87" x2="48.4" y2="260.87"/><line class="cls-1" x1="38.65" y1="261.74" x2="48.4" y2="261.74"/><line class="cls-1" x1="38.65" y1="262.96" x2="48.4" y2="262.96"/><line class="cls-1" x1="38.65" y1="264.53" x2="48.4" y2="264.53"/><line class="cls-1" x1="38.65" y1="265.92" x2="48.4" y2="265.92"/></g><path class="cls-1" d="M39.78,275.85H47.3c.65,0,1.18-.83,1.18-1.84V259.32c0-1-.53-1.84-1.18-1.84H39.78c-.63,0-1.13.79-1.13,1.76v14.84C38.65,275.05,39.15,275.85,39.78,275.85Z"/><path class="cls-3" d="M318.35,109.45V219.66a24.59,24.59,0,0,1-6.48,15.45l-.12-1.63-4.64-15.16a1.78,1.78,0,0,0-1.78-1.78h-1.79a1.78,1.78,0,0,0-1.78,1.78l-5.62,15.16-.29,2.07a24.4,24.4,0,0,1-6.93-15.89V109.45a13.68,13.68,0,0,1,13.64-13.64h2.14A13.68,13.68,0,0,1,318.35,109.45Z"/><path class="cls-3" d="M312.82,248.1a1.79,1.79,0,0,1-1.79,1.79H295.88a1.79,1.79,0,0,1-1.79-1.79l1.76-12.55.29-2.07,5.62-15.16a1.78,1.78,0,0,1,1.78-1.78h1.79a1.78,1.78,0,0,1,1.78,1.78l4.64,15.16.12,1.63Z"/><path class="cls-3" d="M312.82,252.38v19.44a1.79,1.79,0,0,1-1.79,1.79h-9.41l-3.43-5.09V258.09a1.78,1.78,0,0,0-1.78-1.78h-2.14v-3.93a1.78,1.78,0,0,1,1.78-1.78h15A1.79,1.79,0,0,1,312.82,252.38Z"/><path class="cls-3" d="M295.21,275.94H283.33a1.85,1.85,0,0,1-1.85-1.86V259.24a1.85,1.85,0,0,1,1.85-1.85h11.88a1.78,1.78,0,0,1,1.78,1.78v15A1.79,1.79,0,0,1,295.21,275.94Z"/><path class="cls-3" d="M279.65,275.12h.08a1.52,1.52,0,0,0,1.35-1.63V259.84a1.51,1.51,0,0,0-1.35-1.63h-.08a1.1,1.1,0,0,0-.92-.73H271.2a1.16,1.16,0,0,0-1,.84,2,2,0,0,0-1.28,1.58v13.52a2,2,0,0,0,1.28,1.59,1.18,1.18,0,0,0,1,.84h7.53A1.1,1.1,0,0,0,279.65,275.12Z"/><g class="cls-8"><line class="cls-1" x1="279.86" y1="275.85" x2="270.11" y2="275.85"/><line class="cls-1" x1="279.86" y1="275.67" x2="270.11" y2="275.67"/><line class="cls-1" x1="279.86" y1="275.32" x2="270.11" y2="275.32"/><line class="cls-1" x1="279.86" y1="274.8" x2="270.11" y2="274.8"/><line class="cls-1" x1="279.86" y1="274.28" x2="270.11" y2="274.28"/><line class="cls-1" x1="279.86" y1="273.76" x2="270.11" y2="273.76"/><line class="cls-1" x1="279.86" y1="273.23" x2="270.11" y2="273.23"/><line class="cls-1" x1="279.86" y1="272.54" x2="270.11" y2="272.54"/><line class="cls-1" x1="279.86" y1="271.67" x2="270.11" y2="271.67"/><line class="cls-1" x1="279.86" y1="270.45" x2="270.11" y2="270.45"/><line class="cls-1" x1="279.86" y1="268.88" x2="270.11" y2="268.88"/><line class="cls-1" x1="279.86" y1="267.49" x2="270.11" y2="267.49"/><line class="cls-1" x1="279.86" y1="257.56" x2="270.11" y2="257.56"/><line class="cls-1" x1="279.86" y1="257.73" x2="270.11" y2="257.73"/><line class="cls-1" x1="279.86" y1="258.08" x2="270.11" y2="258.08"/><line class="cls-1" x1="279.86" y1="258.6" x2="270.11" y2="258.6"/><line class="cls-1" x1="279.86" y1="259.13" x2="270.11" y2="259.13"/><line class="cls-1" x1="279.86" y1="259.65" x2="270.11" y2="259.65"/><line class="cls-1" x1="279.86" y1="260.17" x2="270.11" y2="260.17"/><line class="cls-1" x1="279.86" y1="260.87" x2="270.11" y2="260.87"/><line class="cls-1" x1="279.86" y1="261.74" x2="270.11" y2="261.74"/><line class="cls-1" x1="279.86" y1="262.96" x2="270.11" y2="262.96"/><line class="cls-1" x1="279.86" y1="264.53" x2="270.11" y2="264.53"/><line class="cls-1" x1="279.86" y1="265.92" x2="270.11" y2="265.92"/></g><path class="cls-1" d="M278.73,275.85H271.2c-.65,0-1.17-.83-1.17-1.84V259.32c0-1,.52-1.84,1.17-1.84h7.53c.62,0,1.13.79,1.13,1.76v14.84C279.86,275.05,279.35,275.85,278.73,275.85Z"/><path class="cls-3" d="M298.87,380.58H221.66a24.59,24.59,0,0,1-15.45-6.48l1.63-.12L223,369.34a1.78,1.78,0,0,0,1.78-1.78v-1.79A1.78,1.78,0,0,0,223,364l-15.16-5.62-2.07-.29a24.4,24.4,0,0,1,15.89-6.93h77.21a13.68,13.68,0,0,1,13.64,13.64v2.14A13.68,13.68,0,0,1,298.87,380.58Z"/><path class="cls-3" d="M193.22,375.05a1.79,1.79,0,0,1-1.79-1.79V358.11a1.79,1.79,0,0,1,1.79-1.79l12.55,1.76,2.07.29L223,364a1.78,1.78,0,0,1,1.78,1.78v1.79a1.78,1.78,0,0,1-1.78,1.78L207.84,374l-1.63.12Z"/><path class="cls-3" d="M188.94,375.05H169.5a1.8,1.8,0,0,1-1.79-1.79v-9.41l5.09-3.43h10.43a1.78,1.78,0,0,0,1.78-1.78V356.5h3.93a1.78,1.78,0,0,1,1.78,1.78v15A1.79,1.79,0,0,1,188.94,375.05Z"/><path class="cls-3" d="M165.38,357.44V345.56a1.86,1.86,0,0,1,1.86-1.86h14.84a1.85,1.85,0,0,1,1.85,1.86v11.88a1.78,1.78,0,0,1-1.78,1.78h-15A1.79,1.79,0,0,1,165.38,357.44Z"/><path class="cls-3" d="M166.2,341.87V342a1.52,1.52,0,0,0,1.63,1.35h13.65a1.51,1.51,0,0,0,1.63-1.35v-.09a1.07,1.07,0,0,0,.73-.91v-7.53a1.16,1.16,0,0,0-.84-1,2,2,0,0,0-1.58-1.28H167.89a2,2,0,0,0-1.58,1.28,1.18,1.18,0,0,0-.84,1V341A1.07,1.07,0,0,0,166.2,341.87Z"/><g class="cls-9"><line class="cls-1" x1="165.47" y1="342.09" x2="165.47" y2="332.34"/><line class="cls-1" x1="165.65" y1="342.09" x2="165.65" y2="332.34"/><line class="cls-1" x1="166" y1="342.09" x2="166" y2="332.34"/><line class="cls-1" x1="166.52" y1="342.09" x2="166.52" y2="332.34"/><line class="cls-1" x1="167.04" y1="342.09" x2="167.04" y2="332.34"/><line class="cls-1" x1="167.56" y1="342.09" x2="167.56" y2="332.34"/><line class="cls-1" x1="168.09" y1="342.09" x2="168.09" y2="332.34"/><line class="cls-1" x1="168.78" y1="342.09" x2="168.78" y2="332.34"/><line class="cls-1" x1="169.65" y1="342.09" x2="169.65" y2="332.34"/><line class="cls-1" x1="170.87" y1="342.09" x2="170.87" y2="332.34"/><line class="cls-1" x1="172.44" y1="342.09" x2="172.44" y2="332.34"/><line class="cls-1" x1="173.83" y1="342.09" x2="173.83" y2="332.34"/><line class="cls-1" x1="183.76" y1="342.09" x2="183.76" y2="332.34"/><line class="cls-1" x1="183.59" y1="342.09" x2="183.59" y2="332.34"/><line class="cls-1" x1="183.24" y1="342.09" x2="183.24" y2="332.34"/><line class="cls-1" x1="182.71" y1="342.09" x2="182.71" y2="332.34"/><line class="cls-1" x1="182.19" y1="342.09" x2="182.19" y2="332.34"/><line class="cls-1" x1="181.67" y1="342.09" x2="181.67" y2="332.34"/><line class="cls-1" x1="181.15" y1="342.09" x2="181.15" y2="332.34"/><line class="cls-1" x1="180.45" y1="342.09" x2="180.45" y2="332.34"/><line class="cls-1" x1="179.58" y1="342.09" x2="179.58" y2="332.34"/><line class="cls-1" x1="178.36" y1="342.09" x2="178.36" y2="332.34"/><line class="cls-1" x1="176.79" y1="342.09" x2="176.79" y2="332.34"/><line class="cls-1" x1="175.4" y1="342.09" x2="175.4" y2="332.34"/></g><path class="cls-1" d="M165.47,341v-7.53c0-.65.83-1.17,1.84-1.17H182c1,0,1.84.52,1.84,1.17V341c0,.62-.79,1.13-1.77,1.13H167.24C166.27,342.09,165.47,341.58,165.47,341Z"/><path class="cls-3" d="M14.76,380.58H92a24.54,24.54,0,0,0,15.44-6.48l-1.62-.12-15.16-4.64a1.79,1.79,0,0,1-1.79-1.78v-1.79A1.79,1.79,0,0,1,90.63,364l15.16-5.62,2.07-.29A24.44,24.44,0,0,0,92,351.15H14.76A13.68,13.68,0,0,0,1.11,364.79v2.14A13.69,13.69,0,0,0,14.76,380.58Z"/><path class="cls-3" d="M120.41,375.05a1.79,1.79,0,0,0,1.78-1.79V358.11a1.79,1.79,0,0,0-1.78-1.79l-12.55,1.76-2.07.29L90.63,364a1.79,1.79,0,0,0-1.79,1.78v1.79a1.79,1.79,0,0,0,1.79,1.78L105.79,374l1.62.12Z"/><path class="cls-3" d="M124.69,375.05h19.44a1.79,1.79,0,0,0,1.78-1.79v-9.41l-5.08-3.43H130.4a1.79,1.79,0,0,1-1.79-1.78V356.5h-3.92a1.78,1.78,0,0,0-1.78,1.78v15A1.79,1.79,0,0,0,124.69,375.05Z"/><path class="cls-3" d="M148.24,357.44V345.56a1.85,1.85,0,0,0-1.85-1.86H131.55a1.86,1.86,0,0,0-1.86,1.86v11.88a1.79,1.79,0,0,0,1.79,1.78h15A1.78,1.78,0,0,0,148.24,357.44Z"/><path class="cls-3" d="M147.42,341.87V342a1.51,1.51,0,0,1-1.63,1.35H132.14a1.52,1.52,0,0,1-1.63-1.35v-.09a1.07,1.07,0,0,1-.73-.91v-7.53a1.18,1.18,0,0,1,.84-1,2,2,0,0,1,1.58-1.28h13.53a2,2,0,0,1,1.58,1.28,1.16,1.16,0,0,1,.84,1V341A1.07,1.07,0,0,1,147.42,341.87Z"/><g class="cls-10"><line class="cls-1" x1="148.15" y1="342.09" x2="148.15" y2="332.34"/><line class="cls-1" x1="147.98" y1="342.09" x2="147.98" y2="332.34"/><line class="cls-1" x1="147.63" y1="342.09" x2="147.63" y2="332.34"/><line class="cls-1" x1="147.11" y1="342.09" x2="147.11" y2="332.34"/><line class="cls-1" x1="146.58" y1="342.09" x2="146.58" y2="332.34"/><line class="cls-1" x1="146.06" y1="342.09" x2="146.06" y2="332.34"/><line class="cls-1" x1="145.54" y1="342.09" x2="145.54" y2="332.34"/><line class="cls-1" x1="144.84" y1="342.09" x2="144.84" y2="332.34"/><line class="cls-1" x1="143.97" y1="342.09" x2="143.97" y2="332.34"/><line class="cls-1" x1="142.75" y1="342.09" x2="142.75" y2="332.34"/><line class="cls-1" x1="141.18" y1="342.09" x2="141.18" y2="332.34"/><line class="cls-1" x1="139.79" y1="342.09" x2="139.79" y2="332.34"/><line class="cls-1" x1="129.86" y1="342.09" x2="129.86" y2="332.34"/><line class="cls-1" x1="130.04" y1="342.09" x2="130.04" y2="332.34"/><line class="cls-1" x1="130.39" y1="342.09" x2="130.39" y2="332.34"/><line class="cls-1" x1="130.91" y1="342.09" x2="130.91" y2="332.34"/><line class="cls-1" x1="131.43" y1="342.09" x2="131.43" y2="332.34"/><line class="cls-1" x1="131.95" y1="342.09" x2="131.95" y2="332.34"/><line class="cls-1" x1="132.48" y1="342.09" x2="132.48" y2="332.34"/><line class="cls-1" x1="133.17" y1="342.09" x2="133.17" y2="332.34"/><line class="cls-1" x1="134.04" y1="342.09" x2="134.04" y2="332.34"/><line class="cls-1" x1="135.26" y1="342.09" x2="135.26" y2="332.34"/><line class="cls-1" x1="136.83" y1="342.09" x2="136.83" y2="332.34"/><line class="cls-1" x1="138.22" y1="342.09" x2="138.22" y2="332.34"/></g><path class="cls-1" d="M148.15,341v-7.53c0-.65-.82-1.17-1.84-1.17H131.62c-1,0-1.84.52-1.84,1.17V341c0,.62.8,1.13,1.77,1.13h14.84C147.36,342.09,148.15,341.58,148.15,341Z"/><path class="cls-3" d="M148.24,13.8V124a24.57,24.57,0,0,1-6.48,15.45l-.12-1.63L137,122.68a1.79,1.79,0,0,0-1.79-1.79h-1.78a1.79,1.79,0,0,0-1.78,1.79L126,137.83l-.29,2.08a24.44,24.44,0,0,1-6.93-15.9V13.8A13.68,13.68,0,0,1,132.46.16h2.14A13.68,13.68,0,0,1,148.24,13.8Z"/><path class="cls-3" d="M142.71,152.46a1.78,1.78,0,0,1-1.78,1.78H125.77a1.78,1.78,0,0,1-1.78-1.78l1.76-12.55.29-2.08,5.62-15.15a1.79,1.79,0,0,1,1.78-1.79h1.78a1.79,1.79,0,0,1,1.79,1.79l4.63,15.15.12,1.63Z"/><path class="cls-3" d="M142.71,156.74v19.43a1.79,1.79,0,0,1-1.78,1.79h-9.42l-3.42-5.08V162.44a1.78,1.78,0,0,0-1.78-1.78h-2.14v-3.92A1.79,1.79,0,0,1,126,155h15A1.79,1.79,0,0,1,142.71,156.74Z"/><path class="cls-3" d="M142.71,180.28v11.87a1.85,1.85,0,0,1-1.85,1.86H126a1.85,1.85,0,0,1-1.85-1.86V180.28a1.79,1.79,0,0,1,1.78-1.79h15A1.79,1.79,0,0,1,142.71,180.28Z"/><path class="cls-3" d="M141.89,195.84v-.08a1.51,1.51,0,0,0-1.62-1.36H126.61a1.51,1.51,0,0,0-1.62,1.36v.08a1.08,1.08,0,0,0-.74.91v7.53a1.19,1.19,0,0,0,.84,1,2.05,2.05,0,0,0,1.59,1.27H140.2a2.05,2.05,0,0,0,1.59-1.27,1.17,1.17,0,0,0,.83-1v-7.53A1.09,1.09,0,0,0,141.89,195.84Z"/><g class="cls-11"><line class="cls-1" x1="142.62" y1="195.62" x2="142.62" y2="205.37"/><line class="cls-1" x1="142.45" y1="195.62" x2="142.45" y2="205.37"/><line class="cls-1" x1="142.1" y1="195.62" x2="142.1" y2="205.37"/><line class="cls-1" x1="141.58" y1="195.62" x2="141.58" y2="205.37"/><line class="cls-1" x1="141.06" y1="195.62" x2="141.06" y2="205.37"/><line class="cls-1" x1="140.53" y1="195.62" x2="140.53" y2="205.37"/><line class="cls-1" x1="140.01" y1="195.62" x2="140.01" y2="205.37"/><line class="cls-1" x1="139.31" y1="195.62" x2="139.31" y2="205.37"/><line class="cls-1" x1="138.44" y1="195.62" x2="138.44" y2="205.37"/><line class="cls-1" x1="137.22" y1="195.62" x2="137.22" y2="205.37"/><line class="cls-1" x1="135.66" y1="195.62" x2="135.66" y2="205.37"/><line class="cls-1" x1="134.26" y1="195.62" x2="134.26" y2="205.37"/><line class="cls-1" x1="124.34" y1="195.62" x2="124.34" y2="205.37"/><line class="cls-1" x1="124.51" y1="195.62" x2="124.51" y2="205.37"/><line class="cls-1" x1="124.86" y1="195.62" x2="124.86" y2="205.37"/><line class="cls-1" x1="125.38" y1="195.62" x2="125.38" y2="205.37"/><line class="cls-1" x1="125.9" y1="195.62" x2="125.9" y2="205.37"/><line class="cls-1" x1="126.43" y1="195.62" x2="126.43" y2="205.37"/><line class="cls-1" x1="126.95" y1="195.62" x2="126.95" y2="205.37"/><line class="cls-1" x1="127.65" y1="195.62" x2="127.65" y2="205.37"/><line class="cls-1" x1="128.52" y1="195.62" x2="128.52" y2="205.37"/><line class="cls-1" x1="129.74" y1="195.62" x2="129.74" y2="205.37"/><line class="cls-1" x1="131.3" y1="195.62" x2="131.3" y2="205.37"/><line class="cls-1" x1="132.7" y1="195.62" x2="132.7" y2="205.37"/></g><path class="cls-1" d="M142.62,196.75v7.53c0,.65-.82,1.18-1.83,1.18h-14.7c-1,0-1.84-.53-1.84-1.18v-7.53c0-.62.8-1.13,1.77-1.13h14.84C141.83,195.62,142.62,196.13,142.62,196.75Z"/><path class="cls-3" d="M194.81,13.8V124a24.57,24.57,0,0,1-6.48,15.45l-.12-1.63-4.64-15.15a1.79,1.79,0,0,0-1.78-1.79H180a1.79,1.79,0,0,0-1.79,1.79l-5.61,15.15-.29,2.08a24.46,24.46,0,0,1-6.94-15.9V13.8A13.68,13.68,0,0,1,179,.16h2.14A13.68,13.68,0,0,1,194.81,13.8Z"/><path class="cls-3" d="M189.28,152.46a1.78,1.78,0,0,1-1.78,1.78H172.34a1.78,1.78,0,0,1-1.78-1.78l1.76-12.55.29-2.08,5.61-15.15a1.79,1.79,0,0,1,1.79-1.79h1.78a1.79,1.79,0,0,1,1.78,1.79l4.64,15.15.12,1.63Z"/><path class="cls-3" d="M189.28,156.74v19.43A1.79,1.79,0,0,1,187.5,178h-9.42l-3.42-5.08V162.44a1.79,1.79,0,0,0-1.79-1.78h-2.14v-3.92a1.8,1.8,0,0,1,1.79-1.79h15A1.79,1.79,0,0,1,189.28,156.74Z"/><path class="cls-3" d="M189.28,180.28v11.87a1.85,1.85,0,0,1-1.85,1.86H172.59a1.86,1.86,0,0,1-1.86-1.86V180.28a1.8,1.8,0,0,1,1.79-1.79h15A1.79,1.79,0,0,1,189.28,180.28Z"/><path class="cls-3" d="M188.46,195.84v-.08a1.51,1.51,0,0,0-1.63-1.36H173.18a1.52,1.52,0,0,0-1.63,1.36v.08a1.09,1.09,0,0,0-.73.91v7.53a1.19,1.19,0,0,0,.84,1,2.05,2.05,0,0,0,1.58,1.27h13.53a2,2,0,0,0,1.58-1.27,1.17,1.17,0,0,0,.84-1v-7.53A1.09,1.09,0,0,0,188.46,195.84Z"/><g class="cls-12"><line class="cls-1" x1="189.19" y1="195.62" x2="189.19" y2="205.37"/><line class="cls-1" x1="189.02" y1="195.62" x2="189.02" y2="205.37"/><line class="cls-1" x1="188.67" y1="195.62" x2="188.67" y2="205.37"/><line class="cls-1" x1="188.15" y1="195.62" x2="188.15" y2="205.37"/><line class="cls-1" x1="187.62" y1="195.62" x2="187.62" y2="205.37"/><line class="cls-1" x1="187.1" y1="195.62" x2="187.1" y2="205.37"/><line class="cls-1" x1="186.58" y1="195.62" x2="186.58" y2="205.37"/><line class="cls-1" x1="185.88" y1="195.62" x2="185.88" y2="205.37"/><line class="cls-1" x1="185.01" y1="195.62" x2="185.01" y2="205.37"/><line class="cls-1" x1="183.79" y1="195.62" x2="183.79" y2="205.37"/><line class="cls-1" x1="182.22" y1="195.62" x2="182.22" y2="205.37"/><line class="cls-1" x1="180.83" y1="195.62" x2="180.83" y2="205.37"/><line class="cls-1" x1="170.9" y1="195.62" x2="170.9" y2="205.37"/><line class="cls-1" x1="171.08" y1="195.62" x2="171.08" y2="205.37"/><line class="cls-1" x1="171.43" y1="195.62" x2="171.43" y2="205.37"/><line class="cls-1" x1="171.95" y1="195.62" x2="171.95" y2="205.37"/><line class="cls-1" x1="172.47" y1="195.62" x2="172.47" y2="205.37"/><line class="cls-1" x1="172.99" y1="195.62" x2="172.99" y2="205.37"/><line class="cls-1" x1="173.52" y1="195.62" x2="173.52" y2="205.37"/><line class="cls-1" x1="174.21" y1="195.62" x2="174.21" y2="205.37"/><line class="cls-1" x1="175.08" y1="195.62" x2="175.08" y2="205.37"/><line class="cls-1" x1="176.3" y1="195.62" x2="176.3" y2="205.37"/><line class="cls-1" x1="177.87" y1="195.62" x2="177.87" y2="205.37"/><line class="cls-1" x1="179.26" y1="195.62" x2="179.26" y2="205.37"/></g><path class="cls-1" d="M189.19,196.75v7.53c0,.65-.82,1.18-1.84,1.18H172.66c-1,0-1.84-.53-1.84-1.18v-7.53c0-.62.8-1.13,1.77-1.13h14.83C188.4,195.62,189.19,196.13,189.19,196.75Z"/></g></g></svg>