<svg xmlns="http://www.w3.org/2000/svg" viewBox="0 0 518.85 122.08"><defs><style>.cls-1{fill:#69c;}.cls-2{fill:#f78d2d;}.cls-3{fill:#5bba4c;}.cls-4{fill:#1e376c;}</style></defs><title>netsurion-logo-login</title><g id="Layer_2" data-name="Layer 2"><g id="Layer_1-2" data-name="Layer 1"><rect class="cls-1" x="129.4" width="10.61" height="10.54"/><rect class="cls-2" x="129.4" y="21.13" width="17.59" height="17.48"/><rect class="cls-3" x="118.75" y="10.54" width="10.65" height="10.58"/><path class="cls-4" d="M0,33.5H19L55.23,91.78h.25V33.5H73.36v86.88H54.26L18.13,62.22h-.25v58.16H0Z"/><path class="cls-4" d="M94.65,93.12c.49,10.95,5.84,15.95,15.45,15.95,6.93,0,12.53-4.27,13.62-8.16h15.21c-4.86,14.85-15.21,21.17-29.44,21.17-19.83,0-32.12-13.63-32.12-33.09,0-18.87,13-33.22,32.12-33.22,21.41,0,31.75,18,30.54,37.35Zm28.1-11c-1.58-8.76-5.35-13.38-13.75-13.38-11,0-14.11,8.51-14.35,13.38Z"/><path class="cls-4" d="M164.23,57.47h12.66V69H164.23v31.15c0,5.84,1.46,7.3,7.3,7.3a27,27,0,0,0,5.36-.48v13.5a65.82,65.82,0,0,1-10.1.61c-10.59,0-19.83-2.43-19.83-15V69H136.49V57.47H147V38.61h17.27Z"/><path class="cls-4" d="M197.93,99.94c.12,7.54,6.45,10.58,13.26,10.58,5,0,11.32-1.94,11.32-8,0-5.23-7.18-7.06-19.59-9.73-10-2.19-20-5.72-20-16.8,0-16.06,13.87-20.19,27.38-20.19,13.75,0,26.4,4.62,27.74,20.07H221.65c-.48-6.69-5.59-8.51-11.8-8.51-3.89,0-9.61.73-9.61,5.84,0,6.2,9.73,7,19.59,9.37,10.1,2.31,19.95,6,19.95,17.64,0,16.55-14.35,21.9-28.71,21.9-14.6,0-28.84-5.47-29.56-22.14Z"/><path class="cls-4" d="M322.88,57.47c-7.91,0-15.93,3.36-19.47,10.37V57.47H286.13v33c0,12.77-4,18-13.38,18-8,0-11.08-5.1-11.08-15.45V57.47H244.4v38.7c0,15.57,4.62,25.91,23,25.91a22.44,22.44,0,0,0,19.23-10.46H287v8.76h16.44V92c0-11.08,4.38-20.2,17-20.2a31.18,31.18,0,0,1,6.21.61v-15Z"/><path class="cls-4" d="M348.93,47.73H331.65V33.5h17.28Zm-17.28,9.74h17.28v62.91H331.65Z"/><path class="cls-4" d="M385.27,55.76c19.82,0,32.6,13.14,32.6,33.21s-12.78,33.08-32.6,33.08S352.8,108.92,352.8,89,365.57,55.76,385.27,55.76Zm0,53.28c11.8,0,15.32-10.1,15.32-20.07s-3.52-20.19-15.32-20.19S370.07,78.87,370.07,89,373.6,109,385.27,109Z"/><path class="cls-4" d="M421.74,57.46h16.42v8.76h.36a22.44,22.44,0,0,1,19.22-10.46c18.36,0,23,10.34,23,25.91v38.68H463.45V84.83c0-10.34-3-15.45-11.06-15.45-9.37,0-13.38,5.24-13.38,18v33H421.74Z"/><path class="cls-4" d="M483.34,106v-3.27h14.47V106h-5.29v14.39h-3.89V106Z"/><path class="cls-4" d="M505.3,102.69l4.13,12.14h.05l3.91-12.14h5.46v17.66h-3.63V107.84h-.05l-4.33,12.51h-3L503.52,108h0v12.39h-3.63V102.69Z"/></g></g></svg>