<svg xmlns="http://www.w3.org/2000/svg" viewBox="0 0 312.5 63"><defs><style>.cls-1{fill:#69c;}.cls-2{fill:#f78d2d;}.cls-3{fill:#5bba4c;}.cls-4{fill:#1e376c;}.cls-5{font-size:38px;fill:#56565a;font-family:AcuminProCond-Regular, Acumin Pro Condensed;}.cls-6{letter-spacing:-0.01em;}.cls-7{letter-spacing:-0.01em;}.cls-8{letter-spacing:0em;}.cls-9{letter-spacing:-0.01em;}.cls-10{letter-spacing:0em;}.cls-11{letter-spacing:0.01em;}.cls-12{fill:none;stroke:#56565a;stroke-miterlimit:10;stroke-width:0.5px;}</style></defs><title>Asset 4</title><g id="Layer_2" data-name="Layer 2"><g id="Layer_1-2" data-name="Layer 1"><rect class="cls-1" x="37.41" y="10.26" width="3.07" height="3.05"/><rect class="cls-2" x="37.41" y="16.37" width="5.08" height="5.05"/><rect class="cls-3" x="34.33" y="13.31" width="3.08" height="3.06"/><path class="cls-4" d="M0,20H5.49L16,36.8H16V20h5.17V45.07H15.69L5.24,28.25H5.17V45.07H0Z"/><path class="cls-4" d="M27.36,37.19c.14,3.16,1.69,4.6,4.47,4.6,2,0,3.62-1.23,3.94-2.35h4.4c-1.41,4.29-4.4,6.12-8.52,6.12-5.73,0-9.28-3.94-9.28-9.57,0-5.45,3.76-9.6,9.28-9.6,6.19,0,9.18,5.2,8.83,10.8ZM35.49,34c-.46-2.53-1.55-3.87-4-3.87A3.94,3.94,0,0,0,27.36,34Z"/><path class="cls-4" d="M47.48,26.88h3.66v3.34H47.48v9c0,1.68.42,2.11,2.11,2.11a8.13,8.13,0,0,0,1.55-.14v3.9a19.32,19.32,0,0,1-2.92.18c-3.06,0-5.73-.71-5.73-4.33V30.22h-3V26.88h3V21.43h5Z"/><path class="cls-4" d="M57.22,39.16c0,2.18,1.87,3.06,3.83,3.06,1.45,0,3.28-.57,3.28-2.33,0-1.51-2.08-2-5.67-2.81-2.88-.63-5.77-1.65-5.77-4.85,0-4.65,4-5.84,7.92-5.84s7.63,1.33,8,5.8H64.08c-.14-1.93-1.62-2.46-3.41-2.46-1.13,0-2.78.21-2.78,1.69,0,1.79,2.81,2,5.66,2.7s5.77,1.73,5.77,5.11c0,4.78-4.15,6.33-8.3,6.33s-8.34-1.59-8.55-6.4Z"/><path class="cls-4" d="M93.35,26.88a6.12,6.12,0,0,0-5.63,3v-3h-5v9.53c0,3.7-1.16,5.21-3.87,5.21-2.32,0-3.2-1.48-3.2-4.47V26.88h-5V38.07c0,4.5,1.33,7.49,6.64,7.49a6.5,6.5,0,0,0,5.56-3H83v2.54h4.75v-8.2c0-3.2,1.26-5.84,4.92-5.84a8.84,8.84,0,0,1,1.8.18V26.88Z"/><path class="cls-4" d="M100.88,24.06h-5V20h5Zm-5,2.82h5V45.07h-5Z"/><path class="cls-4" d="M111.38,26.38c5.73,0,9.42,3.8,9.42,9.6s-3.69,9.57-9.42,9.57S102,41.75,102,36,105.69,26.38,111.38,26.38Zm0,15.41c3.41,0,4.43-2.92,4.43-5.81s-1-5.83-4.43-5.83S107,33.07,107,36,108,41.79,111.38,41.79Z"/><path class="cls-4" d="M121.92,26.88h4.75v2.53h.11a6.47,6.47,0,0,1,5.55-3c5.31,0,6.65,3,6.65,7.49V45.06h-5V34.79c0-3-.87-4.47-3.2-4.47-2.7,0-3.86,1.52-3.86,5.21v9.53h-5Z"/><path class="cls-4" d="M139.73,40.9V40h4.19v.95h-1.53v4.16h-1.13V40.9Z"/><path class="cls-4" d="M146.08,40l1.2,3.51h0L148.42,40H150v5.11H149V41.44h0l-1.26,3.62h-.86l-1.25-3.58h0v3.58H144.5V40Z"/><text class="cls-5" transform="translate(167.91 45.52)"><tspan class="cls-6">B</tspan><tspan class="cls-7" x="17.4" y="0">r</tspan><tspan class="cls-8" x="27.4" y="0">anc</tspan><tspan class="cls-9" x="74.9" y="0">h</tspan><tspan class="cls-10" x="91.24" y="0">S</tspan><tspan class="cls-11" x="107.46" y="0">D</tspan><tspan x="126.23" y="0">O</tspan></text><line class="cls-12" x1="159.53" y1="63" x2="159.53"/></g></g></svg>